<mxfile host="app.diagrams.net" modified="2020-07-23T05:39:04.342Z" agent="5.0 (Windows NT 10.0; Win64; x64) AppleWebKit/537.36 (KHTML, like Gecko) Chrome/84.0.4147.89 Safari/537.36" etag="RcxseaxYlIlT_1okKdq6" version="13.5.1" type="github">
  <diagram id="C5RBs43oDa-KdzZeNtuy" name="Page-1">
    <mxGraphModel dx="868" dy="492" grid="1" gridSize="10" guides="1" tooltips="1" connect="1" arrows="1" fold="1" page="1" pageScale="1" pageWidth="827" pageHeight="1169" math="0" shadow="0">
      <root>
        <mxCell id="WIyWlLk6GJQsqaUBKTNV-0" />
        <mxCell id="WIyWlLk6GJQsqaUBKTNV-1" parent="WIyWlLk6GJQsqaUBKTNV-0" />
        <mxCell id="Luh2VQDBe7dsWh5IxZox-4" value="&lt;br&gt;&lt;br&gt;&lt;br&gt;&lt;br&gt;&lt;br&gt;" style="whiteSpace=wrap;html=1;aspect=fixed;" vertex="1" parent="WIyWlLk6GJQsqaUBKTNV-1">
          <mxGeometry x="10" y="130" width="290" height="290" as="geometry" />
        </mxCell>
        <mxCell id="Luh2VQDBe7dsWh5IxZox-1" value="&lt;b&gt;Exception file created/uploaded&lt;/b&gt;" style="rounded=1;whiteSpace=wrap;html=1;" vertex="1" parent="WIyWlLk6GJQsqaUBKTNV-1">
          <mxGeometry x="30" y="225" width="210" height="105" as="geometry" />
        </mxCell>
        <mxCell id="Luh2VQDBe7dsWh5IxZox-8" style="edgeStyle=orthogonalEdgeStyle;rounded=0;orthogonalLoop=1;jettySize=auto;html=1;entryX=0;entryY=0.5;entryDx=0;entryDy=0;" edge="1" parent="WIyWlLk6GJQsqaUBKTNV-1" source="Luh2VQDBe7dsWh5IxZox-2" target="Luh2VQDBe7dsWh5IxZox-6">
          <mxGeometry relative="1" as="geometry" />
        </mxCell>
        <mxCell id="Luh2VQDBe7dsWh5IxZox-23" value="Saving the exception report" style="edgeLabel;html=1;align=center;verticalAlign=middle;resizable=0;points=[];" vertex="1" connectable="0" parent="Luh2VQDBe7dsWh5IxZox-8">
          <mxGeometry x="0.1982" y="-1" relative="1" as="geometry">
            <mxPoint x="4" y="19.5" as="offset" />
          </mxGeometry>
        </mxCell>
        <mxCell id="Luh2VQDBe7dsWh5IxZox-9" style="edgeStyle=orthogonalEdgeStyle;rounded=0;orthogonalLoop=1;jettySize=auto;html=1;entryX=0;entryY=0.5;entryDx=0;entryDy=0;" edge="1" parent="WIyWlLk6GJQsqaUBKTNV-1" source="Luh2VQDBe7dsWh5IxZox-2" target="Luh2VQDBe7dsWh5IxZox-7">
          <mxGeometry relative="1" as="geometry" />
        </mxCell>
        <mxCell id="Luh2VQDBe7dsWh5IxZox-22" value="Getting the exception report JSON" style="edgeLabel;html=1;align=center;verticalAlign=middle;resizable=0;points=[];" vertex="1" connectable="0" parent="Luh2VQDBe7dsWh5IxZox-9">
          <mxGeometry x="0.1084" relative="1" as="geometry">
            <mxPoint as="offset" />
          </mxGeometry>
        </mxCell>
        <mxCell id="Luh2VQDBe7dsWh5IxZox-2" value="document aggregator service" style="rounded=1;whiteSpace=wrap;html=1;fontStyle=1" vertex="1" parent="WIyWlLk6GJQsqaUBKTNV-1">
          <mxGeometry x="400" y="247.5" width="120" height="60" as="geometry" />
        </mxCell>
        <mxCell id="Luh2VQDBe7dsWh5IxZox-19" style="edgeStyle=orthogonalEdgeStyle;rounded=0;orthogonalLoop=1;jettySize=auto;html=1;entryX=0;entryY=0.5;entryDx=0;entryDy=0;entryPerimeter=0;" edge="1" parent="WIyWlLk6GJQsqaUBKTNV-1" source="Luh2VQDBe7dsWh5IxZox-6" target="Luh2VQDBe7dsWh5IxZox-10">
          <mxGeometry relative="1" as="geometry" />
        </mxCell>
        <mxCell id="Luh2VQDBe7dsWh5IxZox-6" value="Exception service" style="rounded=1;whiteSpace=wrap;html=1;fontStyle=1" vertex="1" parent="WIyWlLk6GJQsqaUBKTNV-1">
          <mxGeometry x="610" y="100" width="120" height="60" as="geometry" />
        </mxCell>
        <mxCell id="Luh2VQDBe7dsWh5IxZox-20" style="edgeStyle=orthogonalEdgeStyle;rounded=0;orthogonalLoop=1;jettySize=auto;html=1;entryX=0.5;entryY=1;entryDx=0;entryDy=0;exitX=0.5;exitY=1;exitDx=0;exitDy=0;" edge="1" parent="WIyWlLk6GJQsqaUBKTNV-1" source="Luh2VQDBe7dsWh5IxZox-7" target="Luh2VQDBe7dsWh5IxZox-1">
          <mxGeometry relative="1" as="geometry">
            <Array as="points">
              <mxPoint x="670" y="510" />
              <mxPoint x="135" y="510" />
            </Array>
          </mxGeometry>
        </mxCell>
        <mxCell id="Luh2VQDBe7dsWh5IxZox-21" value="Reading the exception report" style="edgeLabel;html=1;align=center;verticalAlign=middle;resizable=0;points=[];" vertex="1" connectable="0" parent="Luh2VQDBe7dsWh5IxZox-20">
          <mxGeometry x="-0.1419" y="-1" relative="1" as="geometry">
            <mxPoint as="offset" />
          </mxGeometry>
        </mxCell>
        <mxCell id="Luh2VQDBe7dsWh5IxZox-7" value="Data aggregator service" style="rounded=1;whiteSpace=wrap;html=1;fontStyle=1" vertex="1" parent="WIyWlLk6GJQsqaUBKTNV-1">
          <mxGeometry x="610" y="410" width="120" height="60" as="geometry" />
        </mxCell>
        <mxCell id="Luh2VQDBe7dsWh5IxZox-10" value="RDS" style="outlineConnect=0;dashed=0;verticalLabelPosition=bottom;verticalAlign=top;align=center;html=1;shape=mxgraph.aws3.rds;fillColor=#2E73B8;gradientColor=none;fontStyle=1" vertex="1" parent="WIyWlLk6GJQsqaUBKTNV-1">
          <mxGeometry x="780" y="100" width="42" height="60.5" as="geometry" />
        </mxCell>
        <mxCell id="Luh2VQDBe7dsWh5IxZox-15" value="" style="shape=image;html=1;verticalAlign=top;verticalLabelPosition=bottom;labelBackgroundColor=#ffffff;imageAspect=0;aspect=fixed;image=https://cdn4.iconfinder.com/data/icons/web-essential-4/64/42-web_essential-128.png" vertex="1" parent="WIyWlLk6GJQsqaUBKTNV-1">
          <mxGeometry x="210" y="309.5" width="20" height="20" as="geometry" />
        </mxCell>
        <mxCell id="Luh2VQDBe7dsWh5IxZox-16" value="Exception Folder" style="text;html=1;strokeColor=none;fillColor=#FFE29E;align=center;verticalAlign=middle;whiteSpace=wrap;rounded=0;fontStyle=1" vertex="1" parent="WIyWlLk6GJQsqaUBKTNV-1">
          <mxGeometry x="30" y="240" width="210" height="15" as="geometry" />
        </mxCell>
        <mxCell id="Luh2VQDBe7dsWh5IxZox-17" value="Box.com" style="text;html=1;strokeColor=none;fillColor=#5C82FF;align=center;verticalAlign=middle;whiteSpace=wrap;rounded=0;fontStyle=1" vertex="1" parent="WIyWlLk6GJQsqaUBKTNV-1">
          <mxGeometry x="10" y="130" width="290" height="50" as="geometry" />
        </mxCell>
        <mxCell id="Luh2VQDBe7dsWh5IxZox-18" value="" style="endArrow=classic;html=1;exitX=1;exitY=0.5;exitDx=0;exitDy=0;entryX=0;entryY=0.5;entryDx=0;entryDy=0;" edge="1" parent="WIyWlLk6GJQsqaUBKTNV-1" source="Luh2VQDBe7dsWh5IxZox-1" target="Luh2VQDBe7dsWh5IxZox-2">
          <mxGeometry width="50" height="50" relative="1" as="geometry">
            <mxPoint x="390" y="290" as="sourcePoint" />
            <mxPoint x="440" y="240" as="targetPoint" />
          </mxGeometry>
        </mxCell>
        <mxCell id="Luh2VQDBe7dsWh5IxZox-24" value="Sending the create/upload&amp;nbsp;&lt;br&gt;information" style="edgeLabel;html=1;align=center;verticalAlign=middle;resizable=0;points=[];" vertex="1" connectable="0" parent="Luh2VQDBe7dsWh5IxZox-18">
          <mxGeometry x="-0.3875" y="-1" relative="1" as="geometry">
            <mxPoint x="31" y="-18.5" as="offset" />
          </mxGeometry>
        </mxCell>
      </root>
    </mxGraphModel>
  </diagram>
</mxfile>
